<svg width="14" height="15" viewBox="0 0 14 15" fill="none" xmlns="http://www.w3.org/2000/svg">
<path d="M13.665 2.31096C13.5649 2.21226 13.4459 2.1348 13.3152 2.08325C13.1844 2.03169 13.0445 2.00711 12.904 2.01096H11.834V1.25696C11.8358 1.08908 11.801 0.922817 11.7319 0.76979C11.6628 0.616764 11.5611 0.480656 11.434 0.370964C11.1764 0.128565 10.8348 -0.00443199 10.481 -3.5762e-05H9.93903C9.76344 -0.00394191 9.58879 0.0268152 9.42509 0.0904756C9.2614 0.154136 9.11186 0.24945 8.98503 0.370964C8.85926 0.481764 8.75853 0.618088 8.68956 0.77086C8.62059 0.923632 8.58495 1.08934 8.58503 1.25696V2.01096H5.36303V1.25696C5.36483 1.08908 5.32997 0.922817 5.26088 0.76979C5.19179 0.616764 5.09015 0.480656 4.96303 0.370964C4.70514 0.128323 4.3631 -0.00469205 4.00903 -3.5762e-05H3.46803C3.29244 -0.00394191 3.11779 0.0268152 2.95409 0.0904756C2.7904 0.154136 2.64086 0.24945 2.51403 0.370964C2.38826 0.481764 2.28753 0.618088 2.21856 0.77086C2.14959 0.923632 2.11395 1.08934 2.11403 1.25696V2.01096H1.07003C0.92966 2.00824 0.790138 2.03334 0.659521 2.08483C0.528905 2.13632 0.409783 2.21318 0.309033 2.31096C0.211258 2.39833 0.133152 2.50546 0.0798832 2.62527C0.0266142 2.74509 -0.000602806 2.87485 3.3342e-05 3.00596V12.994C-0.00110914 13.1282 0.0271221 13.261 0.082747 13.3831C0.138372 13.5053 0.220043 13.6137 0.322033 13.701C0.422783 13.7987 0.541905 13.8756 0.672521 13.9271C0.803138 13.9786 0.94266 14.0037 1.08303 14.001H12.917C13.0574 14.0036 13.1969 13.9785 13.3275 13.927C13.4581 13.8755 13.5773 13.7987 13.678 13.701C13.78 13.6137 13.8617 13.5053 13.9173 13.3831C13.9729 13.261 14.0012 13.1282 14 12.994V3.00596C13.993 2.87371 13.9598 2.74416 13.9023 2.62486C13.8447 2.50555 13.7641 2.39885 13.665 2.31096ZM9.68103 1.25696C9.68017 1.22319 9.68661 1.18963 9.6999 1.15856C9.71318 1.1275 9.73301 1.09967 9.75803 1.07696C9.8109 1.0288 9.88056 1.00331 9.95203 1.00596H10.493C10.5643 1.00384 10.6336 1.02968 10.686 1.07796C10.7111 1.10067 10.7309 1.1285 10.7442 1.15956C10.7575 1.19063 10.7639 1.22419 10.763 1.25796V3.50896C10.7639 3.54274 10.7575 3.5763 10.7442 3.60736C10.7309 3.63843 10.7111 3.66626 10.686 3.68896C10.6336 3.73725 10.5643 3.76309 10.493 3.76096H9.95203C9.88077 3.76309 9.8115 3.73725 9.75903 3.68896C9.73401 3.66626 9.71418 3.63843 9.7009 3.60736C9.68761 3.5763 9.68117 3.54274 9.68203 3.50896L9.68103 1.25696ZM3.22203 1.25696C3.22144 1.22328 3.2281 1.18986 3.24156 1.15898C3.25502 1.1281 3.27496 1.10047 3.30003 1.07796C3.35275 1.02944 3.42242 1.00358 3.49403 1.00596H4.03503C4.1063 1.00384 4.17557 1.02968 4.22803 1.07796C4.25305 1.10067 4.27288 1.1285 4.28617 1.15956C4.29946 1.19063 4.30589 1.22419 4.30503 1.25796V3.50896C4.30589 3.54274 4.29946 3.5763 4.28617 3.60736C4.27288 3.63843 4.25305 3.66626 4.22803 3.68896C4.17557 3.73725 4.1063 3.76309 4.03503 3.76096H3.49403C3.42242 3.76335 3.35275 3.73749 3.30003 3.68896C3.27501 3.66626 3.25518 3.63843 3.2419 3.60736C3.22861 3.5763 3.22217 3.54274 3.22303 3.50896V1.25696H3.22203ZM12.9 13.006H1.07003V5.00596H12.9V13.006Z" fill="white"/>
</svg>
