<svg width="14" height="14" viewBox="0 0 14 14" fill="none" xmlns="http://www.w3.org/2000/svg">
<path d="M13.665 2.31084C13.5649 2.21214 13.4459 2.13468 13.3152 2.08313C13.1844 2.03157 13.0445 2.00699 12.904 2.01084H11.834V1.25684C11.8358 1.08895 11.801 0.922695 11.7319 0.769668C11.6628 0.616642 11.5611 0.480534 11.434 0.370842C11.1764 0.128443 10.8348 -0.00455406 10.481 -0.000157832H9.93903C9.76344 -0.00406398 9.58879 0.0266931 9.42509 0.0903535C9.2614 0.154014 9.11186 0.249328 8.98503 0.370842C8.85926 0.481641 8.75853 0.617966 8.68956 0.770738C8.62059 0.92351 8.58495 1.08922 8.58503 1.25684V2.01084H5.36303V1.25684C5.36483 1.08895 5.32997 0.922695 5.26088 0.769668C5.19179 0.616642 5.09015 0.480534 4.96303 0.370842C4.70514 0.128201 4.3631 -0.00481412 4.00903 -0.000157832H3.46803C3.29244 -0.00406398 3.11779 0.0266931 2.95409 0.0903535C2.7904 0.154014 2.64086 0.249328 2.51403 0.370842C2.38826 0.481641 2.28753 0.617966 2.21856 0.770738C2.14959 0.92351 2.11395 1.08922 2.11403 1.25684V2.01084H1.07003C0.92966 2.00811 0.790138 2.03322 0.659521 2.08471C0.528905 2.1362 0.409783 2.21306 0.309033 2.31084C0.211258 2.39821 0.133152 2.50534 0.0798832 2.62515C0.0266142 2.74496 -0.000602806 2.87472 3.3342e-05 3.00584V12.9938C-0.00110914 13.128 0.0271221 13.2609 0.082747 13.383C0.138372 13.5051 0.220043 13.6136 0.322033 13.7008C0.422783 13.7986 0.541905 13.8755 0.672521 13.927C0.803138 13.9785 0.94266 14.0036 1.08303 14.0008H12.917C13.0574 14.0035 13.1969 13.9784 13.3275 13.9269C13.4581 13.8754 13.5773 13.7986 13.678 13.7008C13.78 13.6136 13.8617 13.5051 13.9173 13.383C13.9729 13.2609 14.0012 13.128 14 12.9938V3.00584C13.993 2.87358 13.9598 2.74404 13.9023 2.62473C13.8447 2.50543 13.7641 2.39873 13.665 2.31084ZM9.68103 1.25684C9.68017 1.22307 9.68661 1.1895 9.6999 1.15844C9.71318 1.12738 9.73301 1.09955 9.75803 1.07684C9.8109 1.02868 9.88056 1.00318 9.95203 1.00584H10.493C10.5643 1.00372 10.6336 1.02956 10.686 1.07784C10.7111 1.10055 10.7309 1.12838 10.7442 1.15944C10.7575 1.1905 10.7639 1.22407 10.763 1.25784V3.50884C10.7639 3.54262 10.7575 3.57618 10.7442 3.60724C10.7309 3.63831 10.7111 3.66614 10.686 3.68884C10.6336 3.73712 10.5643 3.76297 10.493 3.76084H9.95203C9.88077 3.76297 9.8115 3.73712 9.75903 3.68884C9.73401 3.66614 9.71418 3.63831 9.7009 3.60724C9.68761 3.57618 9.68117 3.54262 9.68203 3.50884L9.68103 1.25684ZM3.22203 1.25684C3.22144 1.22316 3.2281 1.18974 3.24156 1.15886C3.25502 1.12797 3.27496 1.10034 3.30003 1.07784C3.35275 1.02931 3.42242 1.00345 3.49403 1.00584H4.03503C4.1063 1.00372 4.17557 1.02956 4.22803 1.07784C4.25305 1.10055 4.27288 1.12838 4.28617 1.15944C4.29946 1.1905 4.30589 1.22407 4.30503 1.25784V3.50884C4.30589 3.54262 4.29946 3.57618 4.28617 3.60724C4.27288 3.63831 4.25305 3.66614 4.22803 3.68884C4.17557 3.73712 4.1063 3.76297 4.03503 3.76084H3.49403C3.42242 3.76323 3.35275 3.73737 3.30003 3.68884C3.27501 3.66614 3.25518 3.63831 3.2419 3.60724C3.22861 3.57618 3.22217 3.54262 3.22303 3.50884V1.25684H3.22203ZM12.9 13.0058H1.07003V5.00584H12.9V13.0058Z" fill="#959DB3"/>
</svg>
