<svg width="8" height="8" viewBox="0 0 8 8" fill="none" xmlns="http://www.w3.org/2000/svg">
<path d="M7.12712 7.85997L3.99963 4.73241L0.872148 7.85997C0.77496 7.9525 0.64503 8.00269 0.510883 7.9995C0.376735 7.99631 0.24932 7.94004 0.156636 7.843C0.0596033 7.75032 0.00333032 7.6229 0.000143033 7.48875C-0.00304426 7.3546 0.0471469 7.22466 0.139669 7.12747L3.26716 3.99991L0.139669 0.872352C0.0938272 0.824227 0.0578869 0.767546 0.0339563 0.705539C0.0100257 0.643532 -0.00142103 0.5774 0.000204068 0.510956C0.00182916 0.444511 0.0165445 0.379088 0.0434778 0.318325C0.070411 0.257562 0.109046 0.202649 0.157186 0.156823C0.203044 0.108716 0.257905 0.0701246 0.318684 0.0432343C0.379463 0.0163439 0.444928 0.00172131 0.511371 0.000142619C0.577814 -0.00143608 0.643963 0.0101054 0.70595 0.0340788C0.767937 0.0580522 0.824545 0.0939803 0.872636 0.139855L4.00012 3.26742L7.12761 0.139855C7.2248 0.0473308 7.35473 -0.00286164 7.48887 0.000325727C7.62302 0.00351309 7.75044 0.0597875 7.84312 0.156823C7.94015 0.249509 7.99643 0.376927 7.99961 0.511078C8.0028 0.645228 7.95267 0.775162 7.86015 0.872352L4.73266 3.99991L7.86015 7.12747C7.90602 7.17557 7.94195 7.23224 7.96592 7.29423C7.9899 7.35622 8.00144 7.4223 7.99986 7.48875C7.99828 7.55519 7.9836 7.62066 7.95671 7.68144C7.92982 7.74222 7.89123 7.79714 7.84312 7.843C7.79427 7.89248 7.73614 7.93179 7.67204 7.95873C7.60794 7.98567 7.53918 7.9997 7.46965 7.99999C7.40614 8.00042 7.34319 7.98825 7.28441 7.96422C7.22562 7.94019 7.17214 7.90476 7.12712 7.85997Z" fill="#959DB3"/>
</svg>
