<svg width="14" height="8" viewBox="0 0 14 8" fill="none" xmlns="http://www.w3.org/2000/svg">
<path d="M6.15011 7.41199C6.19542 7.44668 6.2436 7.47746 6.29411 7.50399C6.34922 7.54744 6.40851 7.58529 6.47111 7.61699C6.53621 7.63764 6.60321 7.65171 6.67111 7.65899C6.79935 7.70148 6.93787 7.70148 7.06611 7.65899C7.13402 7.65171 7.20102 7.63764 7.26611 7.61699C7.32837 7.58523 7.38732 7.54738 7.44211 7.50399C7.49401 7.47766 7.54353 7.44687 7.59011 7.41199L12.8731 1.77099C13.0533 1.56436 13.1463 1.29584 13.1324 1.02201C13.1186 0.748181 12.9989 0.490431 12.7987 0.30308C12.5985 0.115729 12.3334 0.0134087 12.0593 0.017683C11.7851 0.0219574 11.5234 0.132492 11.3291 0.325993L6.80911 5.14199L2.28911 0.325993C2.09486 0.132492 1.83308 0.0219574 1.55893 0.017683C1.28479 0.0134087 1.01968 0.115729 0.819497 0.30308C0.619309 0.490431 0.499672 0.748181 0.485796 1.02201C0.47192 1.29584 0.564891 1.56436 0.745114 1.77099L6.15011 7.41199Z" fill="#959DB3"/>
</svg>
