<svg width="14" height="15" viewBox="0 0 14 15" fill="none" xmlns="http://www.w3.org/2000/svg">
<path d="M12.5014 14.8569C12.3743 14.857 12.2521 14.8079 12.1604 14.7199L9.01743 11.5049C8.06125 12.1981 6.91041 12.5712 5.72943 12.5709C4.84792 12.5696 3.97887 12.3627 3.19129 11.9668C2.40372 11.5708 1.71931 10.9967 1.19243 10.2899C0.291186 9.08884 -0.122756 7.59147 0.0335819 6.09801C0.18992 4.60454 0.904983 3.22536 2.03543 2.23694C3.05955 1.34965 4.3684 0.859896 5.72343 0.856938C6.50261 0.855909 7.27342 1.0177 7.98643 1.33194C8.72918 1.65848 9.39341 2.14028 9.93443 2.74494C10.936 3.86486 11.4772 5.32198 11.4496 6.82418C11.4219 8.32638 10.8275 9.76261 9.78543 10.8449L12.8674 13.9819V13.9989C12.9563 14.0967 13.0046 14.2247 13.0023 14.3568C13.0001 14.4889 12.9476 14.6152 12.8554 14.7099C12.8093 14.7569 12.7541 14.7941 12.6933 14.8193C12.6325 14.8446 12.5673 14.8574 12.5014 14.8569ZM5.75943 1.96894C4.50702 1.98476 3.31203 2.49668 2.43655 3.39239C1.56108 4.28811 1.07662 5.4945 1.08943 6.74694C1.07662 7.99938 1.56108 9.20576 2.43655 10.1015C3.31203 10.9972 4.50702 11.5091 5.75943 11.5249C7.01166 11.5089 8.2064 10.9968 9.08165 10.1011C9.95691 9.20544 10.4412 7.9992 10.4284 6.74694C10.4412 5.49467 9.95691 4.28843 9.08165 3.39274C8.2064 2.49705 7.01166 1.98502 5.75943 1.96894Z" fill="#5A6276"/>
</svg>
