<svg width="13" height="16" viewBox="0 0 13 16" fill="none" xmlns="http://www.w3.org/2000/svg">
<g id="Location">
<path id="Shape" d="M6.5 16C6 16 4.828 16 0.9 9.658L0.849 9.567C0.351306 8.63271 0.0616789 7.60179 0 6.545C0.0362911 4.82827 0.731393 3.19124 1.94138 1.97288C3.15137 0.754514 4.78356 0.0481341 6.5 0C8.21644 0.0481341 9.84863 0.754514 11.0586 1.97288C12.2686 3.19124 12.9637 4.82827 13 6.545C12.9341 7.60286 12.6397 8.63386 12.137 9.567L12.087 9.654C12.051 9.719 11.158 11.17 10.112 12.629C8.121 15.448 7.28 16 6.5 16ZM6.5 1.091C5.05895 1.09762 3.67935 1.67554 2.66384 2.69799C1.64832 3.72044 1.07981 5.10394 1.083 6.545C1.13763 7.43574 1.38391 8.30418 1.805 9.091C1.841 9.149 5.428 14.909 6.499 14.909C7.57 14.909 11.157 9.149 11.193 9.091H11.182C11.6069 8.30506 11.857 7.43657 11.915 6.545C11.9182 5.10428 11.35 3.72108 10.3349 2.69869C9.31979 1.6763 7.94071 1.09814 6.5 1.091Z" fill="#959DB3"/>
<path id="Shape_2" d="M6.50012 9.14602C5.9163 9.14642 5.34548 8.97363 4.85988 8.64952C4.37428 8.32541 3.99574 7.86455 3.77213 7.32524C3.54853 6.78594 3.48992 6.19242 3.60373 5.6198C3.71753 5.04717 3.99862 4.52117 4.41145 4.10835C4.82427 3.69552 5.35027 3.41443 5.9229 3.30063C6.49552 3.18682 7.08904 3.24543 7.62834 3.46903C8.16765 3.69264 8.62851 4.07118 8.95262 4.55678C9.27673 5.04237 9.44952 5.6132 9.44912 6.19702C9.4478 6.97874 9.13668 7.72806 8.58392 8.28082C8.03116 8.83358 7.28184 9.1447 6.50012 9.14602ZM6.50012 4.34602C6.13592 4.34701 5.78018 4.45582 5.47774 4.65874C5.17531 4.86165 4.93974 5.14957 4.80073 5.4862C4.66173 5.82283 4.62551 6.19308 4.69666 6.55025C4.76781 6.90743 4.94314 7.23555 5.20052 7.49321C5.45791 7.75088 5.78583 7.92656 6.14294 7.99809C6.50004 8.06963 6.87033 8.03382 7.2071 7.89517C7.54388 7.75653 7.83206 7.52127 8.0353 7.21906C8.23854 6.91684 8.34774 6.56121 8.34912 6.19702C8.34833 5.70734 8.15311 5.23801 7.80638 4.89222C7.45965 4.54644 6.9898 4.35249 6.50012 4.35302V4.34602Z" fill="#959DB3"/>
</g>
</svg>
