<svg width="10" height="6" viewBox="0 0 10 6" fill="none" xmlns="http://www.w3.org/2000/svg">
<path d="M5.52299 0.217039C5.48609 0.190074 5.44695 0.16632 5.40599 0.146039C5.36267 0.112202 5.31611 0.0827255 5.26699 0.0580392C5.21619 0.0419603 5.16394 0.0309073 5.11099 0.0250392C5.00996 -0.00802087 4.90102 -0.00802087 4.79999 0.0250392C4.74703 0.0309073 4.69478 0.0419603 4.64399 0.0580392C4.59487 0.0827255 4.54831 0.112202 4.50499 0.146039C4.464 0.16664 4.42485 0.190729 4.38799 0.218039L0.217988 4.61804C0.144764 4.69709 0.0878574 4.78981 0.05053 4.89089C0.0132026 4.99197 -0.00381201 5.09942 0.000461228 5.20709C0.00473446 5.31475 0.0302115 5.42052 0.0754324 5.51832C0.120653 5.61612 0.184729 5.70404 0.263988 5.77704C0.424832 5.92567 0.637364 6.00561 0.856291 5.99982C1.07522 5.99403 1.28323 5.90297 1.43599 5.74604L4.99999 1.98904L8.56399 5.74604C8.71675 5.90297 8.92476 5.99403 9.14369 5.99982C9.36261 6.00561 9.57514 5.92567 9.73599 5.77704C9.81525 5.70404 9.87932 5.61612 9.92454 5.51832C9.96977 5.42052 9.99524 5.31475 9.99952 5.20709C10.0038 5.09942 9.98677 4.99197 9.94945 4.89089C9.91212 4.78981 9.85521 4.69709 9.78199 4.61804L5.52299 0.217039Z" fill="#959DB3"/>
</svg>
