<svg width="19" height="16" viewBox="0 0 19 16" fill="none" xmlns="http://www.w3.org/2000/svg">
<path d="M9.49996 10.108C7.17696 10.108 5.28796 7.841 5.28796 5.054C5.28796 2.267 7.17696 0 9.49996 0C11.823 0 13.711 2.267 13.711 5.054C13.711 7.841 11.822 10.108 9.49996 10.108ZM9.49996 1.263C9.09038 1.27334 8.6888 1.37861 8.32682 1.57053C7.96484 1.76246 7.65235 2.03578 7.41396 2.369C6.83753 3.14406 6.53406 4.08823 6.55096 5.054C6.53406 6.01977 6.83753 6.96394 7.41396 7.739C7.65246 8.07203 7.96499 8.34517 8.32696 8.53691C8.68894 8.72866 9.09047 8.83378 9.49996 8.844C9.9098 8.83408 10.3117 8.72911 10.6741 8.53735C11.0364 8.34559 11.3493 8.0723 11.588 7.739C12.1633 6.96356 12.4657 6.01942 12.448 5.054C12.4657 4.08858 12.1633 3.14444 11.588 2.369C11.3494 2.03552 11.0366 1.76203 10.6742 1.57009C10.3119 1.37816 9.90988 1.27303 9.49996 1.263Z" fill="white"/>
<path d="M13.2939 9.68401C13.2116 9.6763 13.1286 9.68492 13.0497 9.70937C12.9707 9.73382 12.8973 9.77362 12.8338 9.82648C12.7703 9.87935 12.7178 9.94424 12.6794 10.0174C12.6409 10.0906 12.6174 10.1707 12.6099 10.253C12.5923 10.4194 12.6413 10.586 12.7463 10.7163C12.8513 10.8465 13.0036 10.9299 13.1699 10.948C14.1115 11.0666 14.9822 11.5101 15.6318 12.202C16.2813 12.8939 16.669 13.7908 16.7279 14.738H2.27295C2.33867 13.7936 2.72859 12.9008 3.37673 12.2108C4.02488 11.5207 4.89148 11.0757 5.82995 10.951C5.99627 10.9329 6.14863 10.8495 6.2536 10.7193C6.35858 10.589 6.40761 10.4224 6.38995 10.256C6.38291 10.1734 6.3596 10.093 6.32135 10.0195C6.28309 9.94596 6.23066 9.88072 6.16708 9.82755C6.10349 9.77437 6.03001 9.73431 5.95086 9.70968C5.87172 9.68504 5.78848 9.67632 5.70595 9.68401C4.34896 9.86299 3.10981 10.5484 2.23702 11.6028C1.36423 12.6571 0.922329 14.0025 0.999945 15.369C0.999286 15.4513 1.01485 15.533 1.04575 15.6093C1.07666 15.6857 1.12229 15.7551 1.18005 15.8138C1.23781 15.8725 1.30656 15.9193 1.38238 15.9514C1.4582 15.9835 1.53961 16.0004 1.62195 16.001H17.3779C17.4603 16.0004 17.5417 15.9835 17.6175 15.9514C17.6933 15.9193 17.7621 15.8725 17.8198 15.8138C17.8776 15.7551 17.9232 15.6857 17.9541 15.6093C17.985 15.533 18.0006 15.4513 17.9999 15.369C18.0776 14.0025 17.6357 12.6571 16.7629 11.6028C15.8901 10.5484 14.6509 9.86299 13.2939 9.68401V9.68401Z" fill="white"/>
</svg>
