<svg width="13" height="14" viewBox="0 0 13 14" fill="none" xmlns="http://www.w3.org/2000/svg">
<path d="M3.03852e-05 14V10.889C-0.0138189 10.4609 0.100008 10.0383 0.32703 9.67501L9.24303 0.341013C9.34396 0.233262 9.46592 0.14737 9.60138 0.0886504C9.73683 0.0299309 9.8829 -0.000366211 10.0305 -0.000366211C10.1782 -0.000366211 10.3242 0.0299309 10.4597 0.0886504C10.5951 0.14737 10.7171 0.233262 10.818 0.341013L12.675 2.28501C12.884 2.50873 13.0002 2.80341 13.0002 3.10951C13.0002 3.41561 12.884 3.7103 12.675 3.93401L4.08603 13.222C3.76227 13.4608 3.37403 13.5963 2.97203 13.611L3.03852e-05 14ZM10.03 1.16601L1.11403 10.5L2.97203 12.445L11.887 3.11001L10.03 1.16601Z" fill="white"/>
</svg>
