<svg width="14" height="8" viewBox="0 0 14 8" fill="none" xmlns="http://www.w3.org/2000/svg">
<path d="M7.42203 0.296442C7.37672 0.261755 7.32855 0.230978 7.27803 0.204442C7.22292 0.160999 7.16363 0.123146 7.10103 0.0914424C7.03593 0.0707954 6.96893 0.0567251 6.90103 0.0494424C6.77279 0.00695669 6.63427 0.00695669 6.50603 0.0494424C6.43813 0.0567251 6.37113 0.0707954 6.30603 0.0914424C6.24377 0.123204 6.18482 0.161055 6.13003 0.204442C6.07813 0.230779 6.02861 0.261561 5.98203 0.296442V0.296442L0.699029 5.93744C0.518806 6.14407 0.425836 6.41259 0.439711 6.68642C0.453587 6.96025 0.573225 7.218 0.773412 7.40535C0.973599 7.59271 1.2387 7.69503 1.51285 7.69075C1.787 7.68648 2.04878 7.57594 2.24303 7.38244L6.76303 2.56644L11.283 7.38244C11.4773 7.57594 11.7391 7.68648 12.0132 7.69075C12.2874 7.69503 12.5525 7.59271 12.7526 7.40535C12.9528 7.218 13.0725 6.96025 13.0863 6.68642C13.1002 6.41259 13.0073 6.14407 12.827 5.93744L7.42203 0.296442Z" fill="#959DB3"/>
</svg>
